<?xml version="1.0"?>
<svg xmlns="http://www.w3.org/2000/svg" xmlns:xlink="http://www.w3.org/1999/xlink" version="1.1" id="Capa_1" x="0px" y="0px" viewBox="0 0 512 512" style="enable-background:new 0 0 512 512;" xml:space="preserve" width="512px" height="512px" class=""><g><path style="fill:#98F4D6" d="M512,255.989c0,141.379-114.615,255.989-256,255.989S0,397.368,0,255.989S114.615,0,256,0  S512,114.61,512,255.989z" data-original="#9AE7FD" class="active-path" data-old_color="#97F3D5"/><path style="fill:#945B44;" d="M181,79.997V10c0-5.523,4.477-10,10-10h130c5.523,0,10,4.477,10,10v69.997c0,5.523-4.477,10-10,10  h-19V34.999c0-2.762-2.239-5-5-5h-82c-2.761,0-5,2.238-5,5v54.998h-19C185.477,89.996,181,85.519,181,79.997z M461,299.987H51  c-16.569,0-30,13.431-30,29.999v27.662c39.337,90.799,129.742,154.33,235,154.33s195.663-63.531,235-154.33v-27.662  C491,313.418,477.569,299.987,461,299.987z" data-original="#945B44"/><path style="fill:#87523E;" d="M210,89.996h-19c-5.523,0-10-4.477-10-10V10c0-5.523,4.477-10,10-10h19c-5.523,0-10,4.477-10,10  v69.997C200,85.519,204.477,89.996,210,89.996z" data-original="#87523E"/><path style="fill:#D8694B;" d="M451,80.014v10.153v189.838v141.84c-46.957,55.154-116.886,90.15-195,90.15S107.956,477,61,421.846  v-141.84V90.168V80.014c0-16.568,13.431-29.999,30-29.999h330C437.569,50.016,451,63.447,451,80.014z" data-original="#D8694B"/><path style="fill:#C5573A;" d="M90,450.847c-10.42-8.886-20.122-18.591-29-29.018v-141.84V90.15V79.997  c0-16.568,13.431-29.999,30-29.999h29c-16.569,0-30,13.431-30,29.999V90.15v189.838v108.994v0.001V450.847z" data-original="#C5573A" class=""/><path style="fill:#F8BB5E;" d="M422,350.007v100.866C377.303,488.983,319.344,512,256,512s-121.303-23.017-166-61.128V350.007  c0-11.045,8.954-19.999,20-19.999h292C413.046,330.008,422,338.962,422,350.007z" data-original="#F8BB5E" class=""/><g>
	<path style="fill:#DCA050;" d="M422,369.984H90v-10h332V369.984z" data-original="#DCA050" class=""/>
	<path style="fill:#DCA050;" d="M402.14,229.99H109.86c-38.583,0-69.86-31.278-69.86-69.86v-0.274   c0-38.583,31.278-69.86,69.86-69.86h292.28c38.583,0,69.86,31.278,69.86,69.86v0.274C472,198.713,440.723,229.99,402.14,229.99z" data-original="#DCA050" class=""/>
</g><path style="fill:#D09247;" d="M472,159.993L472,159.993c0,38.659-31.34,69.997-70,69.997H110c-38.66,0-70-31.339-70-69.997l0,0  c0-5.151,0.572-10.165,1.628-14.999c6.869,31.447,34.863,54.998,68.372,54.998h292c33.509,0,61.503-23.55,68.372-54.998  C471.428,149.828,472,154.843,472,159.993z" data-original="#D09247" class=""/><path style="fill:#FFDF8E;" d="M200,44.998v234.99c0,11.045-8.954,19.999-20,19.999h-30c-11.046,0-20-8.954-20-19.999V44.998  c0-2.761,2.239-5,5-5h60C197.761,39.998,200,42.237,200,44.998z M375,39.998h-60c-2.761,0-5,2.239-5,5v234.99  c0,11.045,8.954,19.999,20,19.999h30c11.046,0,20-8.954,20-19.999V44.998C380,42.237,377.761,39.998,375,39.998z" data-original="#FFDF8E" class=""/><path style="fill:#FBC56D" d="M130,200.492h70v59.497h-70V200.492z M310,259.989h70v-59.497h-70V259.989z M130,89.996h70v-10h-70  V89.996z M310,79.997v10h70v-10H310z" data-original="#FBC56D" class=""/><path style="fill:#945B44;" d="M140,359.985h30v34.999c0,8.284-6.716,14.999-15,14.999s-15-6.716-15-14.999V359.985z M165,249.989  c-8.284,0-15,6.716-15,14.999c0,8.284,6.716,14.999,15,14.999s15-6.716,15-14.999C180,256.705,173.284,249.989,165,249.989z   M345,249.989c-8.284,0-15,6.716-15,14.999c0,8.284,6.716,14.999,15,14.999s15-6.716,15-14.999  C360,256.705,353.284,249.989,345,249.989z" data-original="#945B44"/></g> </svg>
