<?xml version="1.0"?>
<svg xmlns="http://www.w3.org/2000/svg" xmlns:xlink="http://www.w3.org/1999/xlink" version="1.1" id="Capa_1" x="0px" y="0px" viewBox="0 0 512 512" style="enable-background:new 0 0 512 512;" xml:space="preserve" width="512px" height="512px" class=""><g><circle style="fill:#FFFAD4" cx="256" cy="256" r="256" data-original="#FFF200" class="" data-old_color="#FFFAD1"/><path style="fill:#F9CE74" d="M512,256c0-8.363-0.415-16.628-1.198-24.785L377.245,97.659L144.452,107.69l-9.698,303.018  l100.448,100.448C242.063,511.708,248.997,512,256,512C397.385,512,512,397.385,512,256z" data-original="#FDC300" class="" data-old_color="#FBCF74"/><path style="fill:#89CDB1" d="M134.755,97.659v313.049h242.49V97.659H134.755z M180.975,392.845h-29.921v-19.649h29.921V392.845z   M180.975,349.899h-29.921V330.25h29.921V349.899z M180.975,306.954h-29.921v-19.649h29.921V306.954z M180.975,264.008h-29.921  v-19.649h29.921V264.008z M180.975,221.062h-29.921v-19.649h29.921V221.062z M180.975,178.117h-29.921v-19.649h29.921V178.117z   M180.975,135.171h-29.921v-19.649h29.921V135.171z M310.482,392.845H201.518V330.25h108.964V392.845z M310.482,306.954H201.518  V201.413h108.964V306.954z M310.482,178.117H201.518v-62.595h108.964V178.117z M360.945,392.845h-29.921v-19.649h29.921V392.845z   M360.945,349.899h-29.921V330.25h29.921V349.899z M360.945,306.954h-29.921v-19.649h29.921V306.954z M360.945,264.008h-29.921  v-19.649h29.921V264.008z M360.945,221.062h-29.921v-19.649h29.921V221.062z M360.945,178.117h-29.921v-19.649h29.921V178.117z   M360.945,135.171h-29.921v-19.649h29.921V135.171z" data-original="#636978" class="" data-old_color="#89CEB2"/><path style="fill:#54B59D" d="M377.245,97.659H255.762v17.863h54.72v62.595h-54.72v23.296h54.72v105.541h-54.72v23.296h54.72  v62.595h-54.72v17.863h121.483V97.659z M360.945,392.845h-29.921v-19.649h29.921V392.845z M360.945,349.899h-29.921V330.25h29.921  V349.899z M360.945,306.954h-29.921v-19.649h29.921V306.954z M360.945,264.008h-29.921v-19.649h29.921V264.008z M360.945,221.062  h-29.921v-19.649h29.921V221.062z M360.945,178.117h-29.921v-19.649h29.921V178.117z M360.945,135.171h-29.921v-19.649h29.921  V135.171z" data-original="#555A66" class="active-path" data-old_color="#53B59D"/><path style="fill:#414952;" d="M257.417,355.005l-14.34,4.57c-6.934,2.21-13.472-4.328-11.262-11.262l4.57-14.34  c3.641-11.426,9.967-21.814,18.447-30.294l141.434-141.434c9.079-9.079,23.8-9.079,32.879,0l0,0c9.079,9.079,9.079,23.8,0,32.879  L287.711,336.558C279.231,345.038,268.843,351.363,257.417,355.005z" data-original="#414952" class=""/><path style="fill:#23272B;" d="M429.145,162.245c-0.295-0.295-0.611-0.554-0.918-0.83L233.206,356.437  c2.157,2.836,5.949,4.387,9.872,3.138l14.34-4.57c11.426-3.641,21.814-9.967,30.294-18.447l141.434-141.434  C438.225,186.045,438.225,171.324,429.145,162.245z" data-original="#23272B" class=""/><rect x="376.068" y="177.446" transform="matrix(0.7071 -0.7071 0.7071 0.7071 -27.4819 335.0437)" style="fill:#707789" width="29.25" height="46.5" data-original="#707789" class=""/><rect x="383.861" y="196.238" transform="matrix(0.7071 -0.7071 0.7071 0.7071 -30.7041 342.8344)" style="fill:#89CDB1" width="29.25" height="24.485" data-original="#636978" class="" data-old_color="#89CEB2"/><rect x="279.767" y="282.51" transform="matrix(0.7071 -0.7071 0.7071 0.7071 -117.1704 297.895)" style="fill:#707789" width="42.479" height="15.749" data-original="#707789" class=""/><rect x="282.112" y="288.184" transform="matrix(0.7071 -0.7071 0.7071 0.7071 -118.1481 300.2426)" style="fill:#89CDB1" width="42.479" height="9.11" data-original="#636978" class="" data-old_color="#89CEB2"/></g> </svg>
