<?xml version="1.0"?>
<svg xmlns="http://www.w3.org/2000/svg" height="512px" viewBox="0 -28 512 512" width="512px" class=""><g transform="matrix(1 -2.44929e-16 2.44929e-16 1 -5.68434e-14 1.13687e-13)"><path d="m512 0h-256l-20.015625 126.324219 276.015625-20.015625zm0 0" fill="#c78f2c" data-original="#C78F2C" class=""/><path d="m31.894531 0v106.308594l224.105469 20.015625v-126.324219zm0 0" fill="#e7c598" data-original="#E7C598" class=""/><path d="m512 106.308594h-256l-20.015625 171.699218 20.015625 178.007813h256zm0 0" fill="#e7c598" data-original="#E7C598" class=""/><path d="m213.476562 106.308594-21.261718-42.523438h-192.214844v392.230469h256v-349.707031zm0 0" fill="#f3e2c2" data-original="#F3E2C2" class=""/><path d="m183.828125 367.179688-67.683594-86.015626 67.683594-86.015624 23.574219 18.550781-53.082032 67.464843 53.082032 67.460938zm0 0" fill="#0b799d" data-original="#0B799D" class="active-path" style="fill:#7CB74C" data-old_color="#0B799D"/><path d="m328.171875 367.179688-23.574219-18.554688 53.082032-67.460938-53.082032-67.464843 23.574219-18.550781 67.683594 86.015624zm0 0" fill="#07485e" data-original="#07485E" class="" style="fill:#4D873E" data-old_color="#07485E"/><path d="m241 195.1875h30v171.949219h-30zm0 0" fill="#0b799d" data-original="#0B799D" class="active-path" style="fill:#7CB74C" data-old_color="#0B799D"/></g> </svg>
