<?xml version="1.0"?>
<svg xmlns="http://www.w3.org/2000/svg" viewBox="0 0 512.00104 512" width="512px" height="512px" class=""><g><path d="m169.648438 395.320312h172.492187v97.492188h-172.492187zm0 0" fill="#5a5a5a" data-original="#5A5A5A"/><path d="m256 395.320312h86.140625v97.492188h-86.140625zm0 0" fill="#444" data-original="#444" class=""/><path d="m0 0h512v366.851562h-512zm0 0" fill="#deecf1" data-original="#DEECF1" class=""/><path d="m256 0h256v366.851562h-256zm0 0" fill="#cfdde2" data-original="#CFDDE2" class=""/><path d="m0 275.5h512v136.492188h-512zm0 0" fill="#444" data-original="#444" class=""/><path d="m256 275.5h256v136.492188h-256zm0 0" fill="#292929" data-original="#292929" class=""/><path d="m256 357.945312c7.847656 0 15.363281-6.898437 15-15-.363281-8.125-6.589844-15-15-15-7.84375 0-15.363281 6.898438-15 15 .363281 8.128907 6.589844 15 15 15zm0 0" fill="#5a5a5a" data-original="#5A5A5A"/><path d="m271 342.945312c-.363281-8.128906-6.589844-15-15-15v30c7.847656 0 15.363281-6.898437 15-15zm0 0" fill="#444" data-original="#444" class=""/><path d="m124.082031 481.996094h263.835938v30h-263.835938zm0 0" fill="#444" data-original="#444" class=""/><path d="m256 481.996094h131.917969v30h-131.917969zm0 0" fill="#292929" data-original="#292929" class=""/><path d="m274.074219 158.070312 50.867187 40-.066406-109.988281-50.820312 39.730469-.023438-39.730469-56.953125 44.523438v-38.539063h-30v97.882813h30v-38.714844l57.019531 44.835937zm0 0" fill="#00d7df" data-original="#00D7DF" class="" style="fill:#745739" data-old_color="##74573"/><path d="m274.074219 158.070312 50.867187 40-.066406-109.988281-50.820312 39.730469-.023438-39.730469-18.03125 14.097657v81.660156l18.097656 14.230468zm0 0" fill="#00aadf" data-original="#00AADF" class="active-path" style="fill:#653614" data-old_color="##65361"/></g> </svg>
